PathFileType	4	(X/Y/Z)	C:\Users\WrightLab\Desktop\Jo\P5V28.trc
DataRate	CameraRate	NumFrames	NumMarkers	Units	OrigDataRate	OrigDataStartFrame	OrigNumFrames
100.00	100.00	       24	19	mm	100.00	115	       918
Frame#	Time	Headset_Front			Headset_Back			Headset_Left			Headset_Right			Left_Shoulder			Right_Shoulder			Sternum			C7			Left Elbow			Right Elbow			Left Wrist			Right Wrist			Left ASIS			Right ASIS			S2			Left Knee			Right Knee			Left Ankle			Right Ankle			
		X1	Y1	Z1	X2	Y2	Z2	X3	Y3	Z3	X4	Y4	Z4	X5	Y5	Z5	X6	Y6	Z6	X7	Y7	Z7	X8	Y8	Z8	X9	Y9	Z9	X10	Y10	Z10	X11	Y11	Z11	X12	Y12	Z12	X13	Y13	Z13	X14	Y14	Z14	X15	Y15	Z15	X16	Y16	Z16	X17	Y17	Z17	X18	Y18	Z18	X19	Y19	Z19	

115	1.140																												-472.49036	1171.95239	-1370.06104				-367.81924	1049.57764	-1187.53394				-316.60730	930.74078	-1287.06409				-15.07493	467.60928	-1355.63208	-382.29367	470.91675	-1340.36462							
116	1.150																												-472.25946	1171.82092	-1370.37268				-367.76813	1049.62061	-1187.52515				-316.60730	930.74078	-1287.06409				-15.18361	466.62674	-1354.69800	-381.48743	470.59695	-1340.48608							
117	1.160																												-471.68936	1171.40356	-1370.38330				-367.73734	1049.61597	-1187.53796				-316.50217	930.88562	-1286.73938				-15.12608	466.69974	-1354.34021	-381.16071	470.77414	-1340.30713							
118	1.170																												-471.36557	1171.24036	-1370.54041				-367.69556	1049.62720	-1187.52747				-316.36667	931.08771	-1286.65540				-15.09398	466.72971	-1354.13940	-380.92062	470.90384	-1340.37366							
119	1.180																												-471.22009	1169.09961	-1378.77332				-367.57581	1049.71301	-1187.38550				-316.11813	931.44757	-1286.26331				-15.02138	466.82919	-1353.68872	-380.75845	470.97568	-1340.61816							
120	1.190																												-470.00879	1171.49121	-1371.94849				-367.50656	1049.69421	-1187.61267				-315.21231	930.90942	-1285.70203				-14.90388	467.03873	-1352.96423	-380.54260	471.06873	-1340.79492							
121	1.200										-276.03882	1561.91040	-1153.60156																-469.22931	1171.31873	-1372.21289				-367.47205	1049.65247	-1188.30371				-315.17480	930.94989	-1285.34009				-14.78606	467.25107	-1352.23804	-380.05408	471.02386	-1340.95044							
122	1.210										-282.96017	1584.80847	-1231.94153																-468.83380	1171.23047	-1372.17737				-367.30188	1049.74890	-1188.34692				-315.06552	931.10162	-1285.02393				-14.20958	466.59473	-1352.65820	-379.92853	471.32040	-1341.06067							
123	1.220										-282.71091	1581.99475	-1230.87305																-468.48944	1171.16479	-1372.22205				-367.11932	1049.84875	-1188.44604				-314.34702	931.71497	-1285.07544				-13.90270	467.13791	-1350.76453	-379.90665	471.33301	-1341.05969							
124	1.230										-282.51825	1579.32715	-1230.01282																-468.50961	1169.82678	-1376.67480				-366.96460	1049.91443	-1188.65149				-314.10339	932.04156	-1284.11707				-13.61201	467.60718	-1348.96594	-379.90543	471.35492	-1341.06189							
125	1.240										-282.36792	1576.64819	-1229.19373																-467.90436	1171.00830	-1372.52100				-366.76773	1050.05688	-1188.86487				-314.10339	932.04156	-1284.11707				-13.29165	468.11008	-1346.98169	-379.78748	471.55441	-1340.70544							
126	1.250										-281.92834	1574.76550	-1228.09668																-467.61441	1170.95642	-1372.60999				-366.64401	1050.06812	-1189.15833				-313.07034	931.76050	-1283.96606				-12.97366	468.68488	-1345.02026	-379.74930	471.54413	-1340.70007							
127	1.260										-281.62277	1573.07178	-1227.59827																-466.94254	1170.89624	-1372.93982				-366.34030	1050.18018	-1189.26990				-313.05246	931.77075	-1283.59351				-12.84914	468.49863	-1342.44116	-379.74207	471.59357	-1340.70471							
128	1.270										-281.48611	1571.15137	-1226.82532																-466.38132	1170.53467	-1372.64600				-366.21588	1050.18225	-1189.24963				-312.94733	931.91583	-1283.26855				-12.51353	469.05600	-1340.36646	-379.66843	471.55145	-1340.69189							
129	1.280										-281.20581	1569.51147	-1226.09302																-466.06073	1170.49841	-1372.76086				-366.10971	1050.15527	-1189.23816				-312.19049	931.83899	-1283.36475				-12.32409	469.26721	-1339.18408	-379.50348	471.83356	-1340.06519							
130	1.290										-280.91589	1568.63159	-1225.48010																-465.51920	1170.69763	-1373.79761				-365.97415	1050.25635	-1189.43799				-312.05493	932.04126	-1283.28064				-12.65497	469.51999	-1336.65906	-379.44724	471.80374	-1340.05566							
131	1.300										-280.68835	1567.38818	-1224.84937																-464.71252	1170.59119	-1374.44067				-365.87167	1050.25488	-1189.40942				-311.50711	931.79492	-1283.26282				-12.55437	469.56348	-1336.02380	-379.46863	471.73102	-1339.72571							
132	1.310										-280.54483	1566.74524	-1224.88098																-465.25000	1167.67883	-1384.51599				-365.78699	1050.24548	-1189.39954				-311.50711	931.79492	-1283.26282				-11.90744	468.56915	-1337.20862	-379.47543	471.91006	-1338.54138							
133	1.320										-280.31921	1566.10315	-1224.21167																-465.21240	1167.73621	-1384.35693				-365.43207	1050.29089	-1189.22632				-310.40192	931.51447	-1283.09497				-11.06032	467.00961	-1338.23389	-379.41647	471.85251	-1338.52844							
134	1.330										-280.02829	1565.67603	-1223.47961																-464.53601	1167.06616	-1386.92358				-365.37634	1050.27600	-1189.22241				-310.27310	931.70190	-1282.90063				-10.21721	466.27197	-1339.54651	-379.35635	471.75180	-1338.60193							
135	1.340										-279.72687	1565.47668	-1222.86902																-463.28430	1170.35986	-1375.37012				-365.31116	1050.27197	-1189.21130				-309.33142	931.36047	-1282.95398				-10.01810	466.57712	-1338.30994	-379.22513	472.15140	-1337.48352							
136	1.350										-279.35938	1565.38721	-1222.31372																-462.98544	1170.32617	-1375.38660				-365.23438	1050.25623	-1189.20618				-309.15277	931.62781	-1282.84314				-8.43622	465.75906	-1341.04346	-379.39038	471.82690	-1337.17371							
137	1.360										-278.94894	1565.37073	-1221.60217																-462.62262	1170.28760	-1375.33130				-365.15717	1050.22864	-1189.21338				-308.99594	931.86255	-1282.74585				-7.35740	465.26169	-1339.44934	-379.12024	472.32724	-1336.60901							
138	1.370										-278.67419	1565.27112	-1221.30627																-462.19235	1170.24109	-1375.09546				-365.10840	1050.04004	-1188.75928				-308.11038	931.32080	-1282.73669				-6.86168	466.19504	-1336.38135	-378.96176	472.50897	-1336.44910							
